<svg width="109" height="108" viewBox="0 0 109 108" fill="currentColor" xmlns="http://www.w3.org/2000/svg">
<path d="M38.6899 23.03C38.9599 34.29 26.0699 35.51 30.2899 48.64C32.1199 54.32 40.9099 59.57 38.8899 68.96C38.0799 72.76 35.1399 75.13 32.9799 78.13C31.0799 80.76 30.3199 83.59 30.0999 86.83" stroke="black" stroke-width="3.07" stroke-linecap="round" stroke-linejoin="round"/>
<path d="M53.5099 23.03C53.7799 34.29 40.8899 35.51 45.1099 48.64C46.9399 54.32 55.7299 59.57 53.7099 68.96C52.8999 72.76 49.9599 75.13 47.7999 78.13C45.8999 80.76 45.1399 83.59 44.9199 86.83" stroke="black" stroke-width="3.07" stroke-linecap="round" stroke-linejoin="round"/>
<path d="M68.3297 23.03C68.5997 34.29 55.7097 35.51 59.9297 48.64C61.7597 54.32 70.5497 59.57 68.5297 68.96C67.7197 72.76 64.7797 75.13 62.6197 78.13C60.7197 80.76 59.9597 83.59 59.7397 86.83" stroke="black" stroke-width="3.07" stroke-linecap="round" stroke-linejoin="round"/>
<path d="M83.1498 23.03C83.4198 34.29 70.5298 35.51 74.7498 48.64C76.5798 54.32 85.3698 59.57 83.3498 68.96C82.5398 72.76 79.5998 75.13 77.4398 78.13C75.5398 80.76 74.7798 83.59 74.5598 86.83" stroke="black" stroke-width="3.07" stroke-linecap="round" stroke-linejoin="round"/>
</svg>
