<svg width="109" height="108" viewBox="0 0 109 108" fill="currentColor" xmlns="http://www.w3.org/2000/svg">
<path d="M96.0498 55.3401V67.2301C96.0498 70.9701 92.9998 74.0201 89.2598 74.0201H31.5298C24.8398 74.0201 21.0498 68.2901 19.2598 58.7401H16.2398C15.3098 58.7401 14.5398 57.9801 14.5398 57.0401V48.5501C14.5398 47.6201 15.3098 46.8501 16.2398 46.8501H18.0398C17.9598 44.6801 17.9198 42.4201 17.9398 40.0601H45.9498V46.8501H69.8498L70.0998 45.1201C70.3698 43.2701 72.0998 41.6301 73.9698 41.4801L89.2798 40.3501C89.3798 40.3501 89.4798 40.3401 89.5798 40.3401C91.3398 40.3401 93.1198 41.6301 93.5998 43.3401L95.1298 48.7001C95.6398 50.5001 96.0598 53.4901 96.0598 55.3601L96.0498 55.3401Z" stroke="black" stroke-width="3" stroke-linecap="round" stroke-linejoin="round"/>
<path d="M44.1098 39.21C44.1098 38.03 43.9598 36.53 44.9498 35.68C45.8898 34.88 47.5698 35.19 48.3598 34.17C49.3198 32.94 48.8298 30.11 47.9598 28.97C47.2698 28.08 45.8598 27.64 44.8398 27.33C40.8698 26.12 36.4798 26.05 32.3598 26.05C28.3998 26.05 24.2598 26.14 20.4098 27.18C18.7598 27.62 17.0398 28.3001 16.4198 30.0301C16.0398 31.0701 15.9598 32.4 16.3798 33.44C16.9798 34.9 18.3598 34.58 19.2198 35.66C20.0498 36.7 19.9798 38.18 19.8098 39.43" stroke="black" stroke-width="3" stroke-linecap="round" stroke-linejoin="round"/>
<path d="M79.0599 79.1201H34.9099V84.2101H79.0599V79.1201Z" stroke="black" stroke-width="3" stroke-linecap="round" stroke-linejoin="round"/>
<path d="M38.3098 74.47V78.57" stroke="black" stroke-width="3" stroke-linecap="round" stroke-linejoin="round"/>
<path d="M75.1199 74.47V78.57" stroke="black" stroke-width="3" stroke-linecap="round" stroke-linejoin="round"/>
</svg>
